<mxfile host="Electron" modified="2023-07-12T12:56:43.589Z" agent="Mozilla/5.0 (X11; Linux x86_64) AppleWebKit/537.36 (KHTML, like Gecko) draw.io/21.6.1 Chrome/112.0.5615.204 Electron/24.6.1 Safari/537.36" etag="_qhk3ZGQuBV0UmfKpCl3" version="21.6.1" type="device">
  <diagram name="Page-1" id="42789a77-a242-8287-6e28-9cd8cfd52e62">
    <mxGraphModel dx="1434" dy="873" grid="1" gridSize="10" guides="1" tooltips="1" connect="1" arrows="1" fold="1" page="1" pageScale="1" pageWidth="1100" pageHeight="850" background="none" math="0" shadow="0">
      <root>
        <mxCell id="0" />
        <mxCell id="1" parent="0" />
        <mxCell id="nW5K0ZwIiBc6x1iw3fxi-8" style="edgeStyle=orthogonalEdgeStyle;rounded=0;orthogonalLoop=1;jettySize=auto;html=1;entryX=0.5;entryY=0;entryDx=0;entryDy=0;" edge="1" parent="1" source="nW5K0ZwIiBc6x1iw3fxi-1" target="nW5K0ZwIiBc6x1iw3fxi-2">
          <mxGeometry relative="1" as="geometry" />
        </mxCell>
        <mxCell id="nW5K0ZwIiBc6x1iw3fxi-1" value="bookStoreRoutes.go&lt;br&gt;User interaction will start from here" style="rounded=0;whiteSpace=wrap;html=1;" vertex="1" parent="1">
          <mxGeometry x="340" y="30" width="180" height="60" as="geometry" />
        </mxCell>
        <mxCell id="nW5K0ZwIiBc6x1iw3fxi-7" style="edgeStyle=orthogonalEdgeStyle;rounded=0;orthogonalLoop=1;jettySize=auto;html=1;entryX=0.53;entryY=-0.02;entryDx=0;entryDy=0;entryPerimeter=0;" edge="1" parent="1" source="nW5K0ZwIiBc6x1iw3fxi-2" target="nW5K0ZwIiBc6x1iw3fxi-4">
          <mxGeometry relative="1" as="geometry" />
        </mxCell>
        <mxCell id="nW5K0ZwIiBc6x1iw3fxi-2" value="bookController.go&lt;br&gt;serveral function for interacting with bookModel" style="rounded=0;whiteSpace=wrap;html=1;" vertex="1" parent="1">
          <mxGeometry x="340" y="160" width="120" height="60" as="geometry" />
        </mxCell>
        <mxCell id="nW5K0ZwIiBc6x1iw3fxi-9" style="edgeStyle=orthogonalEdgeStyle;rounded=0;orthogonalLoop=1;jettySize=auto;html=1;entryX=0.5;entryY=0;entryDx=0;entryDy=0;" edge="1" parent="1" source="nW5K0ZwIiBc6x1iw3fxi-4" target="nW5K0ZwIiBc6x1iw3fxi-5">
          <mxGeometry relative="1" as="geometry" />
        </mxCell>
        <mxCell id="nW5K0ZwIiBc6x1iw3fxi-4" value="book.go&lt;br&gt;The actual model of book that what are the details of book needed to store" style="rounded=0;whiteSpace=wrap;html=1;" vertex="1" parent="1">
          <mxGeometry x="320" y="270" width="120" height="90" as="geometry" />
        </mxCell>
        <mxCell id="nW5K0ZwIiBc6x1iw3fxi-5" value="app.go&lt;br&gt;functions for initialization of database" style="rounded=0;whiteSpace=wrap;html=1;" vertex="1" parent="1">
          <mxGeometry x="230" y="425" width="120" height="60" as="geometry" />
        </mxCell>
        <mxCell id="nW5K0ZwIiBc6x1iw3fxi-6" value="utils.go&lt;br&gt;For decodind the data received from the user ie. Book data&amp;nbsp;" style="rounded=0;whiteSpace=wrap;html=1;" vertex="1" parent="1">
          <mxGeometry x="40" y="50" width="120" height="60" as="geometry" />
        </mxCell>
      </root>
    </mxGraphModel>
  </diagram>
</mxfile>
